<?xml version="1.0" encoding="UTF-8" standalone="no"?><!-- Generator: Gravit.io --><svg xmlns="http://www.w3.org/2000/svg" xmlns:xlink="http://www.w3.org/1999/xlink" style="isolation:isolate" viewBox="0 0 300 100" width="300pt" height="100pt"><g><path d=" M 13.296 47.842 L 44.023 34.8 L 44.029 34.813 C 50.266 32.353 57.646 33.643 62.686 38.683 L 50.413 50.957 L 38.139 63.23 C 37.395 62.487 36.733 61.692 36.153 60.858 L 36.153 60.858 L 28.302 68.708 C 27.025 69.985 24.952 69.985 23.675 68.708 L 22.584 67.617 L 22.584 67.617 L 22.584 67.617 L 11.333 56.366 C 9.32 54.353 9.32 51.084 11.333 49.071 C 11.905 48.499 12.579 48.089 13.296 47.842 Z  M 33.318 53.957 L 32.523 54.751 L 32.523 54.751 L 33.816 56.044 C 33.606 55.357 33.44 54.66 33.318 53.957 L 33.318 53.957 L 33.318 53.957 Z " fill-rule="evenodd" fill="rgb(0,188,242)"/><path d=" M 65.985 53.249 L 65.985 53.248 L 60.405 53.248 L 64.436 49.216 C 67.637 46.015 68.467 43.6 68.467 39.809 L 68.467 33.538 L 82.802 19.204 L 81.234 11.813 L 71.155 21.892 L 71.155 19.204 L 51.894 19.204 L 51.894 33.538 L 37.784 47.648 L 35.656 58.623 L 23.597 58.623 L 23.597 58.623 L 23.226 58.623 L 23.226 58.628 C 19.709 58.723 16.352 60.162 13.859 62.659 C 11.279 65.239 9.823 68.746 9.823 72.397 C 9.823 73.109 10.11 73.795 10.612 74.296 C 11.118 74.802 11.799 75.085 12.511 75.085 C 13.223 75.085 13.908 74.802 14.415 74.296 C 14.916 73.795 15.198 73.109 15.198 72.397 C 15.198 70.171 16.085 68.034 17.662 66.457 C 19.234 64.885 21.371 63.998 23.597 63.998 L 23.597 63.998 L 32.184 63.998 L 32.184 69.821 L 26.755 75.25 L 30.418 79.202 L 45.623 63.998 L 63.337 63.958 L 65.904 66.525 L 69.793 62.636 C 71.94 60.49 71.94 57.005 69.793 54.858 C 68.741 53.806 67.366 53.269 65.985 53.249 Z " fill-rule="evenodd" fill="rgb(117,117,117)"/><path d=" M 80.67 12.429 C 81.45 11.505 82.618 10.917 83.921 10.917 C 86.27 10.917 88.177 12.824 88.177 15.173 C 88.177 17.521 86.27 19.428 83.921 19.428 C 83.502 19.428 83.096 19.367 82.713 19.254 L 79.685 22.282 L 75.251 17.848 L 80.67 12.429 Z " fill-rule="evenodd" fill="rgb(204,204,204)"/><path d=" M 33.754 51.666 C 32.926 52.443 32.408 53.547 32.408 54.771 C 32.408 57.119 34.315 59.026 36.664 59.026 C 37.888 59.026 38.991 58.508 39.768 57.68 L 39.77 57.682 L 43.965 53.487 L 37.947 47.469 L 33.752 51.664 L 33.754 51.666 Z " fill-rule="evenodd" fill="rgb(204,204,204)"/><path d=" M 67.124 19.204 L 71.155 19.204 L 71.155 23.236 L 67.124 19.204 Z " fill-rule="evenodd" fill="rgb(245,141,81)"/><circle vector-effect="non-scaling-stroke" cx="66.8996615570797" cy="23.459585905073943" r="4.255425044756077" fill="rgb(255,255,255)"/><path d=" M 34.575 22.282 L 36.897 22.282 L 36.897 22.282 C 36.897 23.904 38.214 25.222 39.837 25.222 L 49.318 25.222 L 49.318 27.79 L 39.837 27.79 L 39.837 27.79 L 49.318 27.79 L 49.318 30.379 L 28.883 30.379 L 28.883 30.379 L 26.293 30.379 L 26.293 30.379 L 23.704 30.379 C 23.704 28.95 24.864 27.79 26.293 27.79 L 39.521 27.79 C 37.545 27.678 35.847 26.525 34.965 24.872 L 31.986 24.872 C 30.556 24.872 29.396 23.711 29.396 22.282 L 31.986 22.282 L 31.986 22.282 L 34.575 22.282 L 34.575 22.282 Z " fill-rule="evenodd" fill="rgb(232,18,36)"/><path d=" M 52.729 34.129 L 52.697 34.161 L 49.408 30.873 L 49.4 30.88 C 45.259 26.739 45.259 20.015 49.4 15.874 C 53.541 11.733 60.265 11.733 64.406 15.874 L 56.933 23.348 L 59.875 26.29 C 61.021 27.264 61.748 28.715 61.748 30.335 C 61.748 33.265 59.37 35.644 56.44 35.644 C 54.996 35.644 53.686 35.066 52.729 34.129 Z " fill-rule="evenodd" fill="rgb(255,255,255)"/><clipPath id="_clipPath_lzNeVgzq6OdvP92ntOgLDzY9jbSrX5U1"><path d=" M 52.729 34.129 L 52.697 34.161 L 49.408 30.873 L 49.4 30.88 C 45.259 26.739 45.259 20.015 49.4 15.874 C 53.541 11.733 60.265 11.733 64.406 15.874 L 56.933 23.348 L 59.875 26.29 C 61.021 27.264 61.748 28.715 61.748 30.335 C 61.748 33.265 59.37 35.644 56.44 35.644 C 54.996 35.644 53.686 35.066 52.729 34.129 Z " fill="rgb(255,255,255)"/></clipPath><g clip-path="url(#_clipPath_lzNeVgzq6OdvP92ntOgLDzY9jbSrX5U1)"><rect x="43.182" y="18.797" width="21.13" height="2.823" transform="matrix(0.707,-0.707,0.707,0.707,1.453,43.923)" fill="rgb(232,18,36)"/></g><path d=" M 16.681 67.636 C 15.722 69.028 15.198 70.686 15.198 72.397 C 15.198 73.109 14.916 73.795 14.415 74.296 C 13.908 74.802 13.223 75.085 12.511 75.085 C 11.799 75.085 11.118 74.802 10.612 74.296 C 10.11 73.795 9.823 73.109 9.823 72.397 C 9.823 69.449 10.772 66.595 12.496 64.247 C 16.674 67.656 12.475 64.241 16.681 67.636 Z " fill="rgb(204,204,204)"/><path d=" M 26.082 83.539 C 26.094 83.68 26.1 83.824 26.1 83.969 C 26.1 86.791 23.808 89.083 20.986 89.083 L 20.986 84.641 L 20.986 83.969 L 20.986 81.02 L 27.805 74.2 L 31.757 77.863 L 26.082 83.539 Z " fill-rule="evenodd" fill="rgb(204,204,204)"/><path d=" M 59.943 76.018 C 59.746 78.812 57.414 81.02 54.571 81.02 L 54.571 76.018 L 54.571 76.018 L 54.571 69.385 L 59.957 64 L 68.467 63.94 L 59.957 72.434 L 59.957 76.018 L 59.943 76.018 Z " fill-rule="evenodd" fill="rgb(204,204,204)"/><path d=" M 59.957 72.434 L 59.943 76.018 C 59.746 78.812 57.415 81.02 54.571 81.02 L 54.571 69.385 L 59.957 64 L 45.623 63.998 L 31.386 78.235 L 26.082 83.539 C 26.094 83.68 26.1 83.824 26.1 83.969 C 26.1 86.791 23.808 89.083 20.986 89.083 L 20.986 81.02 L 26.755 75.25 L 26.755 75.25 L 26.755 75.25 L 32.184 69.821 L 32.184 64.826 L 28.302 68.708 C 27.025 69.985 24.952 69.985 23.675 68.708 L 19.849 64.882 C 19.047 65.283 18.307 65.812 17.662 66.457 C 16.085 68.034 15.198 70.171 15.198 72.397 C 15.198 73.109 14.916 73.795 14.415 74.296 L 14.415 74.296 L 14.415 74.296 L 14.415 74.296 C 13.908 74.802 13.223 75.085 12.511 75.085 C 11.799 75.085 11.118 74.802 10.612 74.296 C 10.11 73.795 9.823 73.109 9.823 72.397 C 9.823 68.746 11.279 65.239 13.859 62.659 C 14.495 62.021 15.188 61.453 15.925 60.958 L 11.333 56.366 L 11.333 56.366 L 11.333 56.366 C 9.32 54.353 9.32 51.084 11.333 49.071 C 11.905 48.499 12.579 48.089 13.296 47.842 L 13.296 47.842 L 44.029 34.813 C 46.504 33.837 49.159 33.451 51.776 33.656 L 51.776 33.656 L 51.894 33.358 Q 49.08 30.55 48.93 30.379 L 23.704 30.379 C 23.704 28.95 24.864 27.79 26.293 27.79 L 39.521 27.79 C 37.545 27.678 35.847 26.525 34.965 24.872 L 31.986 24.872 C 30.556 24.872 29.396 23.711 29.396 22.282 L 36.897 22.282 L 36.897 22.282 C 36.897 23.904 38.214 25.222 39.837 25.222 L 46.455 25.222 C 45.877 21.929 46.859 18.415 49.4 15.874 C 53.541 11.733 60.265 11.733 64.406 15.874 L 61.076 19.204 L 61.076 19.204 L 71.155 19.204 L 71.155 21.892 L 81.245 11.865 C 81.976 11.273 82.908 10.917 83.921 10.917 C 86.27 10.917 88.177 12.824 88.177 15.173 C 88.177 17.521 86.27 19.428 83.921 19.428 C 83.513 19.428 83.117 19.37 82.743 19.263 L 82.743 19.263 L 68.467 33.538 L 68.467 39.809 C 68.467 43.6 67.637 46.015 64.436 49.216 L 60.405 53.248 L 65.985 53.249 C 67.366 53.269 68.741 53.806 69.793 54.858 C 71.94 57.005 71.94 60.49 69.793 62.636 L 65.904 66.525 L 65.891 66.512 L 59.957 72.434 Z  M 15.163 80.482 C 14.307 80.764 13.411 80.908 12.506 80.908 C 10.253 80.908 8.09 80.007 6.495 78.413 C 4.9 76.818 4 74.655 4 72.401 C 4 72.401 4 72.397 4 72.397 L 4 72.397 L 4 72.397 L 4 72.397 C 4 68.289 5.29 64.289 7.687 60.957 L 7.216 60.486 C 7.216 60.482 7.216 60.482 7.216 60.482 C 5.156 58.426 4 55.631 4 52.719 C 4 49.807 5.156 47.012 7.212 44.956 C 8.336 43.832 9.684 42.967 11.172 42.416 L 25.833 36.203 L 17.882 36.203 L 17.882 30.38 C 17.882 28.624 18.428 26.913 19.449 25.484 C 20.471 24.06 21.913 22.985 23.575 22.42 C 23.575 22.371 23.57 22.326 23.57 22.282 L 23.57 16.458 L 41.999 16.458 C 42.809 14.711 43.92 13.121 45.282 11.755 C 48.364 8.678 52.548 6.944 56.902 6.944 C 61.26 6.944 65.444 8.678 68.521 11.755 C 68.996 12.23 69.381 12.776 69.668 13.381 L 71.46 13.381 L 77.14 7.737 C 77.278 7.598 77.426 7.464 77.579 7.343 C 79.375 5.887 81.614 5.094 83.921 5.094 C 86.596 5.094 89.158 6.156 91.048 8.046 C 92.938 9.936 94 12.503 94 15.173 C 94 17.65 93.086 20.042 91.438 21.887 C 89.789 23.733 87.514 24.911 85.055 25.189 L 74.291 35.948 L 74.291 39.783 C 74.3 40.956 74.219 42.134 74.044 43.294 C 73.856 44.549 73.516 45.78 73.036 46.954 C 72.718 47.716 72.347 48.45 71.921 49.153 C 72.642 49.606 73.31 50.139 73.91 50.739 C 76.033 52.862 77.225 55.747 77.225 58.748 C 77.225 61.749 76.033 64.63 73.91 66.753 C 73.91 66.753 73.91 66.753 73.91 66.753 L 65.905 74.762 L 65.887 74.744 L 65.771 74.861 L 65.766 76.039 C 65.766 76.169 65.762 76.299 65.753 76.428 C 65.551 79.255 64.284 81.907 62.21 83.837 C 60.136 85.768 57.403 86.843 54.572 86.843 L 48.749 86.843 L 48.749 69.821 L 48.032 69.821 L 35.504 82.355 L 31.701 86.153 C 31.199 88.621 29.86 90.843 27.907 92.438 C 25.954 94.032 23.508 94.906 20.986 94.906 C 20.986 94.906 20.986 94.906 20.986 94.906 L 15.163 94.906 L 15.163 80.482 Z " fill-rule="evenodd" fill="rgb(0,0,0)"/></g><path d=" M 142.148 12.666 L 142.148 33.706 L 142.148 33.706 Q 142.148 50.424 126.569 50.424 L 126.569 50.424 L 126.569 50.424 Q 111.456 50.424 111.456 34.094 L 111.456 34.094 L 111.456 12.666 L 119.841 12.666 L 119.841 34.198 L 119.841 34.198 Q 119.841 43.203 126.88 43.203 L 126.88 43.203 L 126.88 43.203 Q 133.789 43.203 133.789 34.508 L 133.789 34.508 L 133.789 12.666 L 142.148 12.666 L 142.148 12.666 Z  M 190.335 12.666 L 198.771 12.666 L 188.963 49.777 L 179.699 49.777 L 173.539 25.968 L 173.539 25.968 Q 173.048 24.105 172.944 21.802 L 172.944 21.802 L 172.841 21.802 L 172.841 21.802 Q 172.608 24.338 172.168 25.968 L 172.168 25.968 L 165.853 49.777 L 156.201 49.777 L 146.444 12.666 L 155.579 12.666 L 160.807 37.381 L 160.807 37.381 Q 161.143 38.959 161.299 41.625 L 161.299 41.625 L 161.454 41.625 L 161.454 41.625 Q 161.557 39.632 162.204 37.277 L 162.204 37.277 L 168.933 12.666 L 177.887 12.666 L 183.969 37.588 L 183.969 37.588 Q 184.305 38.959 184.564 41.573 L 184.564 41.573 L 184.667 41.573 L 184.667 41.573 Q 184.771 39.529 185.211 37.432 L 185.211 37.432 L 190.335 12.666 L 190.335 12.666 Z  M 215.826 36.992 L 211.84 36.992 L 211.84 49.777 L 203.481 49.777 L 203.481 12.666 L 216.576 12.666 L 216.576 12.666 Q 230.602 12.666 230.602 24.493 L 230.602 24.493 L 230.602 24.493 Q 230.602 30.083 226.578 33.538 L 226.578 33.538 L 226.578 33.538 Q 222.554 36.992 215.826 36.992 L 215.826 36.992 L 215.826 36.992 Z  M 215.127 19.084 L 211.84 19.084 L 211.84 30.652 L 215.127 30.652 L 215.127 30.652 Q 221.804 30.652 221.804 24.804 L 221.804 24.804 L 221.804 24.804 Q 221.804 19.084 215.127 19.084 L 215.127 19.084 L 215.127 19.084 Z " fill="rgb(0,0,0)"/><path d=" M 129.441 77.53 L 129.441 82.427 L 129.441 82.427 Q 126.834 83.689 122.634 83.689 L 122.634 83.689 L 122.634 83.689 Q 117.156 83.689 114.018 80.468 L 114.018 80.468 L 114.018 80.468 Q 110.88 77.247 110.88 71.885 L 110.88 71.885 L 110.88 71.885 Q 110.88 66.174 114.408 62.621 L 114.408 62.621 L 114.408 62.621 Q 117.936 59.069 123.564 59.069 L 123.564 59.069 L 123.564 59.069 Q 127.05 59.069 129.441 59.949 L 129.441 59.949 L 129.441 65.112 L 129.441 65.112 Q 127.05 63.684 123.995 63.684 L 123.995 63.684 L 123.995 63.684 Q 120.642 63.684 118.583 65.792 L 118.583 65.792 L 118.583 65.792 Q 116.525 67.901 116.525 71.503 L 116.525 71.503 L 116.525 71.503 Q 116.525 74.956 118.467 77.007 L 118.467 77.007 L 118.467 77.007 Q 120.409 79.057 123.697 79.057 L 123.697 79.057 L 123.697 79.057 Q 126.834 79.057 129.441 77.53 L 129.441 77.53 L 129.441 77.53 Z  M 141.178 83.689 L 141.178 83.689 L 141.178 83.689 Q 136.928 83.689 134.496 81.306 L 134.496 81.306 L 134.496 81.306 Q 132.064 78.924 132.064 74.84 L 132.064 74.84 L 132.064 74.84 Q 132.064 70.623 134.587 68.241 L 134.587 68.241 L 134.587 68.241 Q 137.111 65.859 141.41 65.859 L 141.41 65.859 L 141.41 65.859 Q 145.644 65.859 148.051 68.241 L 148.051 68.241 L 148.051 68.241 Q 150.458 70.623 150.458 74.541 L 150.458 74.541 L 150.458 74.541 Q 150.458 78.775 147.976 81.232 L 147.976 81.232 L 147.976 81.232 Q 145.494 83.689 141.178 83.689 Z  M 141.311 69.876 L 141.311 69.876 L 141.311 69.876 Q 139.451 69.876 138.422 71.155 L 138.422 71.155 L 138.422 71.155 Q 137.393 72.433 137.393 74.774 L 137.393 74.774 L 137.393 74.774 Q 137.393 79.671 141.344 79.671 L 141.344 79.671 L 141.344 79.671 Q 145.113 79.671 145.113 74.641 L 145.113 74.641 L 145.113 74.641 Q 145.113 69.876 141.311 69.876 Z  M 180.856 72.699 L 180.856 83.274 L 175.626 83.274 L 175.626 73.578 L 175.626 73.578 Q 175.626 69.876 172.904 69.876 L 172.904 69.876 L 172.904 69.876 Q 171.609 69.876 170.795 70.989 L 170.795 70.989 L 170.795 70.989 Q 169.982 72.101 169.982 73.761 L 169.982 73.761 L 169.982 83.274 L 164.736 83.274 L 164.736 73.479 L 164.736 73.479 Q 164.736 69.876 162.063 69.876 L 162.063 69.876 L 162.063 69.876 Q 160.718 69.876 159.913 70.939 L 159.913 70.939 L 159.913 70.939 Q 159.108 72.001 159.108 73.827 L 159.108 73.827 L 159.108 83.274 L 153.862 83.274 L 153.862 66.274 L 159.108 66.274 L 159.108 68.93 L 159.174 68.93 L 159.174 68.93 Q 159.988 67.569 161.457 66.714 L 161.457 66.714 L 161.457 66.714 Q 162.926 65.859 164.669 65.859 L 164.669 65.859 L 164.669 65.859 Q 168.272 65.859 169.6 69.03 L 169.6 69.03 L 169.6 69.03 Q 171.542 65.859 175.311 65.859 L 175.311 65.859 L 175.311 65.859 Q 180.856 65.859 180.856 72.699 L 180.856 72.699 L 180.856 72.699 Z  M 212 72.699 L 212 83.274 L 206.771 83.274 L 206.771 73.578 L 206.771 73.578 Q 206.771 69.876 204.048 69.876 L 204.048 69.876 L 204.048 69.876 Q 202.753 69.876 201.94 70.989 L 201.94 70.989 L 201.94 70.989 Q 201.126 72.101 201.126 73.761 L 201.126 73.761 L 201.126 83.274 L 195.88 83.274 L 195.88 73.479 L 195.88 73.479 Q 195.88 69.876 193.207 69.876 L 193.207 69.876 L 193.207 69.876 Q 191.863 69.876 191.057 70.939 L 191.057 70.939 L 191.057 70.939 Q 190.252 72.001 190.252 73.827 L 190.252 73.827 L 190.252 83.274 L 185.006 83.274 L 185.006 66.274 L 190.252 66.274 L 190.252 68.93 L 190.319 68.93 L 190.319 68.93 Q 191.132 67.569 192.601 66.714 L 192.601 66.714 L 192.601 66.714 Q 194.071 65.859 195.814 65.859 L 195.814 65.859 L 195.814 65.859 Q 199.416 65.859 200.744 69.03 L 200.744 69.03 L 200.744 69.03 Q 202.687 65.859 206.455 65.859 L 206.455 65.859 L 206.455 65.859 Q 212 65.859 212 72.699 L 212 72.699 L 212 72.699 Z  M 232.304 66.274 L 232.304 83.274 L 227.075 83.274 L 227.075 80.684 L 226.992 80.684 L 226.992 80.684 Q 225.049 83.689 221.795 83.689 L 221.795 83.689 L 221.795 83.689 Q 215.885 83.689 215.885 76.533 L 215.885 76.533 L 215.885 66.274 L 221.115 66.274 L 221.115 76.069 L 221.115 76.069 Q 221.115 79.671 223.97 79.671 L 223.97 79.671 L 223.97 79.671 Q 225.381 79.671 226.228 78.683 L 226.228 78.683 L 226.228 78.683 Q 227.075 77.696 227.075 76.002 L 227.075 76.002 L 227.075 66.274 L 232.304 66.274 L 232.304 66.274 Z  M 253.139 72.865 L 253.139 83.274 L 247.909 83.274 L 247.909 73.827 L 247.909 73.827 Q 247.909 69.876 245.087 69.876 L 245.087 69.876 L 245.087 69.876 Q 243.726 69.876 242.846 70.922 L 242.846 70.922 L 242.846 70.922 Q 241.966 71.968 241.966 73.578 L 241.966 73.578 L 241.966 83.274 L 236.72 83.274 L 236.72 66.274 L 241.966 66.274 L 241.966 68.963 L 242.033 68.963 L 242.033 68.963 Q 243.909 65.859 247.494 65.859 L 247.494 65.859 L 247.494 65.859 Q 253.139 65.859 253.139 72.865 L 253.139 72.865 L 253.139 72.865 Z  M 259.946 63.584 L 259.946 63.584 L 259.946 63.584 Q 258.618 63.584 257.771 62.796 L 257.771 62.796 L 257.771 62.796 Q 256.924 62.007 256.924 60.862 L 256.924 60.862 L 256.924 60.862 Q 256.924 59.683 257.771 58.936 L 257.771 58.936 L 257.771 58.936 Q 258.618 58.189 259.946 58.189 L 259.946 58.189 L 259.946 58.189 Q 261.29 58.189 262.129 58.936 L 262.129 58.936 L 262.129 58.936 Q 262.967 59.683 262.967 60.862 L 262.967 60.862 L 262.967 60.862 Q 262.967 62.057 262.129 62.821 L 262.129 62.821 L 262.129 62.821 Q 261.29 63.584 259.946 63.584 Z  M 262.535 66.274 L 262.535 83.274 L 257.289 83.274 L 257.289 66.274 L 262.535 66.274 L 262.535 66.274 Z  M 277.228 79.19 L 277.228 83.075 L 277.228 83.075 Q 276.066 83.689 273.725 83.689 L 273.725 83.689 L 273.725 83.689 Q 268.18 83.689 268.18 77.928 L 268.18 77.928 L 268.18 70.142 L 265.424 70.142 L 265.424 66.274 L 268.18 66.274 L 268.18 62.605 L 273.409 61.111 L 273.409 66.274 L 277.228 66.274 L 277.228 70.142 L 273.409 70.142 L 273.409 77.015 L 273.409 77.015 Q 273.409 79.671 275.518 79.671 L 275.518 79.671 L 275.518 79.671 Q 276.348 79.671 277.228 79.19 L 277.228 79.19 L 277.228 79.19 Z  M 291.173 66.274 L 296.369 66.274 L 289.463 84.635 L 289.463 84.635 Q 286.973 91.259 281.959 91.259 L 281.959 91.259 L 281.959 91.259 Q 280.05 91.259 278.822 90.827 L 278.822 90.827 L 278.822 86.644 L 278.822 86.644 Q 279.868 87.258 281.096 87.258 L 281.096 87.258 L 281.096 87.258 Q 283.121 87.258 283.918 85.349 L 283.918 85.349 L 284.815 83.241 L 277.909 66.274 L 283.719 66.274 L 286.89 76.616 L 286.89 76.616 Q 287.189 77.579 287.355 78.891 L 287.355 78.891 L 287.421 78.891 L 287.421 78.891 Q 287.571 77.928 287.969 76.65 L 287.969 76.65 L 291.173 66.274 L 291.173 66.274 Z " fill="rgb(0,0,0)"/></svg>
