<svg xmlns="http://www.w3.org/2000/svg" xmlns:xlink="http://www.w3.org/1999/xlink" style="isolation:isolate" viewBox="0 0 300 300" id="el_wgR8hJh1X"><style>@-webkit-keyframes kf_el_CRQXnB9GDK_an_0lSqvxvW-{0%{-webkit-transform: translate(99.08000183105469px, 0.5px) translate(-99.08000183105469px, -0.5px) translate(0px, 0px);transform: translate(99.08000183105469px, 0.5px) translate(-99.08000183105469px, -0.5px) translate(0px, 0px);}50%{-webkit-transform: translate(99.08000183105469px, 0.5px) translate(-99.08000183105469px, -0.5px) translate(0px, 5px);transform: translate(99.08000183105469px, 0.5px) translate(-99.08000183105469px, -0.5px) translate(0px, 5px);}100%{-webkit-transform: translate(99.08000183105469px, 0.5px) translate(-99.08000183105469px, -0.5px) translate(0px, 0px);transform: translate(99.08000183105469px, 0.5px) translate(-99.08000183105469px, -0.5px) translate(0px, 0px);}}@keyframes kf_el_CRQXnB9GDK_an_0lSqvxvW-{0%{-webkit-transform: translate(99.08000183105469px, 0.5px) translate(-99.08000183105469px, -0.5px) translate(0px, 0px);transform: translate(99.08000183105469px, 0.5px) translate(-99.08000183105469px, -0.5px) translate(0px, 0px);}50%{-webkit-transform: translate(99.08000183105469px, 0.5px) translate(-99.08000183105469px, -0.5px) translate(0px, 5px);transform: translate(99.08000183105469px, 0.5px) translate(-99.08000183105469px, -0.5px) translate(0px, 5px);}100%{-webkit-transform: translate(99.08000183105469px, 0.5px) translate(-99.08000183105469px, -0.5px) translate(0px, 0px);transform: translate(99.08000183105469px, 0.5px) translate(-99.08000183105469px, -0.5px) translate(0px, 0px);}}@-webkit-keyframes kf_el_QUksWRm8RPv_an_O94lIc13K{0%{-webkit-transform: translate(15.713000297546387px, 127.7509994506836px) translate(-15.713000297546387px, -127.7509994506836px) translate(0px, 0px);transform: translate(15.713000297546387px, 127.7509994506836px) translate(-15.713000297546387px, -127.7509994506836px) translate(0px, 0px);}50%{-webkit-transform: translate(15.713000297546387px, 127.7509994506836px) translate(-15.713000297546387px, -127.7509994506836px) translate(-10px, 10px);transform: translate(15.713000297546387px, 127.7509994506836px) translate(-15.713000297546387px, -127.7509994506836px) translate(-10px, 10px);}100%{-webkit-transform: translate(15.713000297546387px, 127.7509994506836px) translate(-15.713000297546387px, -127.7509994506836px) translate(0px, 0px);transform: translate(15.713000297546387px, 127.7509994506836px) translate(-15.713000297546387px, -127.7509994506836px) translate(0px, 0px);}}@keyframes kf_el_QUksWRm8RPv_an_O94lIc13K{0%{-webkit-transform: translate(15.713000297546387px, 127.7509994506836px) translate(-15.713000297546387px, -127.7509994506836px) translate(0px, 0px);transform: translate(15.713000297546387px, 127.7509994506836px) translate(-15.713000297546387px, -127.7509994506836px) translate(0px, 0px);}50%{-webkit-transform: translate(15.713000297546387px, 127.7509994506836px) translate(-15.713000297546387px, -127.7509994506836px) translate(-10px, 10px);transform: translate(15.713000297546387px, 127.7509994506836px) translate(-15.713000297546387px, -127.7509994506836px) translate(-10px, 10px);}100%{-webkit-transform: translate(15.713000297546387px, 127.7509994506836px) translate(-15.713000297546387px, -127.7509994506836px) translate(0px, 0px);transform: translate(15.713000297546387px, 127.7509994506836px) translate(-15.713000297546387px, -127.7509994506836px) translate(0px, 0px);}}#el_wgR8hJh1X *{-webkit-animation-duration: 1s;animation-duration: 1s;-webkit-animation-iteration-count: infinite;animation-iteration-count: infinite;-webkit-animation-timing-function: cubic-bezier(0, 0, 1, 1);animation-timing-function: cubic-bezier(0, 0, 1, 1);}#el_9aZtxCKCas{fill: rgb(74,134,232);fill-opacity: 0;}#el_7xNQU_En8A{fill: rgb(0,188,242);}#el_GWbykkOcJz{fill: rgb(117,117,117);}#el_ZoYI-AeIG4{fill: rgb(204,204,204);}#el_UHthqJIOmP{fill: rgb(204,204,204);}#el_HWZgdfmtLR{fill: rgb(245,141,81);}#el_k5LsVURxW9{fill: rgb(255,255,255);}#el_Im1ExAi8bb{fill: rgb(232,18,36);}#el_Xp5rl5Uk3y{fill: rgb(255,255,255);}#el_c351Aj2bQW{-webkit-transform: matrix(0.707,-0.707,0.707,0.707,37.335,158.618);transform: matrix(0.707,-0.707,0.707,0.707,37.335,158.618);fill: rgb(232,18,36);}#el_soteceF3zF{fill: rgb(204,204,204);}#el_GIdgR8zQxY{fill: rgb(204,204,204);}#el_bvk-hCWxqFr{fill: rgb(204,204,204);}#el_rf7Yo9D0cH5{fill: rgb(0,0,0);}#el_AJM3zKceqEX{stroke: none;fill: #000000;stroke-miterlimit: 10;}#el_wsJBmiaTVzV{-webkit-transform: matrix(0.707,-0.707,0.707,0.707,-101.282,86.07);transform: matrix(0.707,-0.707,0.707,0.707,-101.282,86.07);fill: rgb(204,204,204);}#el_wqHGPwplsIy{stroke: none;fill: #000000;stroke-miterlimit: 10;}#el_5UQqqMCgqsM{-webkit-transform: matrix(0.707,-0.707,0.707,0.707,-134.401,166.331);transform: matrix(0.707,-0.707,0.707,0.707,-134.401,166.331);fill: rgb(204,204,204);}#el_3n345NszLOJ{stroke: none;fill: #000000;stroke-miterlimit: 10;}#el_Q0EQvPUHK_t{-webkit-transform: matrix(0.707,-0.707,0.707,0.707,-157.85,109.501);transform: matrix(0.707,-0.707,0.707,0.707,-157.85,109.501);fill: rgb(204,204,204);}#el_QUksWRm8RPv_an_O94lIc13K{-webkit-animation-fill-mode: backwards;animation-fill-mode: backwards;-webkit-transform: translate(15.713000297546387px, 127.7509994506836px) translate(-15.713000297546387px, -127.7509994506836px) translate(0px, 0px);transform: translate(15.713000297546387px, 127.7509994506836px) translate(-15.713000297546387px, -127.7509994506836px) translate(0px, 0px);-webkit-animation-name: kf_el_QUksWRm8RPv_an_O94lIc13K;animation-name: kf_el_QUksWRm8RPv_an_O94lIc13K;-webkit-animation-timing-function: cubic-bezier(0.42, 0, 0.58, 1);animation-timing-function: cubic-bezier(0.42, 0, 0.58, 1);}#el_CRQXnB9GDK_an_0lSqvxvW-{-webkit-animation-fill-mode: backwards;animation-fill-mode: backwards;-webkit-transform: translate(99.08000183105469px, 0.5px) translate(-99.08000183105469px, -0.5px) translate(0px, 0px);transform: translate(99.08000183105469px, 0.5px) translate(-99.08000183105469px, -0.5px) translate(0px, 0px);-webkit-animation-name: kf_el_CRQXnB9GDK_an_0lSqvxvW-;animation-name: kf_el_CRQXnB9GDK_an_0lSqvxvW-;-webkit-animation-timing-function: cubic-bezier(0.42, 0, 0.58, 1);animation-timing-function: cubic-bezier(0.42, 0, 0.58, 1);}</style><defs><clipPath id="_clipPath_u0jICH24UA6a0FZ4n193lebdyttlBGlK"><rect width="300" height="300"/></clipPath></defs><g clip-path="url(#_clipPath_u0jICH24UA6a0FZ4n193lebdyttlBGlK)" id="el_V8yqUZog6M"><rect width="300" height="300" id="el_9aZtxCKCas"/><g id="el_CRQXnB9GDK_an_0lSqvxvW-" data-animator-group="true" data-animator-type="0"><g id="el_CRQXnB9GDK"><path d=" M 119.833 95.933 L 188.429 66.816 L 188.442 66.846 C 202.367 61.353 218.842 64.233 230.094 75.485 L 202.693 102.886 L 175.293 130.286 C 173.633 128.626 172.155 126.852 170.859 124.989 L 170.859 124.989 L 153.333 142.515 C 150.483 145.366 145.854 145.366 143.003 142.515 L 140.567 140.079 L 140.567 140.079 L 140.567 140.079 L 115.451 114.963 L 115.451 114.963 L 115.451 114.963 C 110.956 110.468 110.956 103.17 115.451 98.676 C 116.728 97.399 118.232 96.484 119.833 95.933 Z  M 164.53 109.583 L 162.756 111.357 L 162.756 111.357 L 165.643 114.243 C 165.175 112.71 164.804 111.153 164.53 109.583 L 164.53 109.583 L 164.53 109.583 Z " fill-rule="evenodd" id="el_7xNQU_En8A"/><path d=" M 237.458 108.004 L 237.458 108 L 225 108 L 234 99 C 241.147 91.853 243 86.463 243 78 L 243 64 L 275 32 L 271.5 15.5 L 249 38 L 249 32 L 206 32 L 206 64 L 174.5 95.5 L 169.75 120 L 142.83 120 L 142.83 120 L 142 120 L 142 120.011 C 134.15 120.223 126.654 123.436 121.09 129.01 C 115.33 134.77 112.08 142.6 112.08 150.75 C 112.08 152.34 112.72 153.87 113.84 154.99 C 114.97 156.12 116.49 156.75 118.08 156.75 C 119.67 156.75 121.2 156.12 122.33 154.99 C 123.45 153.87 124.08 152.34 124.08 150.75 C 124.08 145.78 126.06 141.01 129.58 137.49 C 133.09 133.98 137.86 132 142.83 132 L 142.83 132 L 162 132 L 162 145 L 149.88 157.12 L 158.057 165.943 L 192 132 L 231.546 131.909 L 237.278 137.642 L 245.96 128.96 C 250.752 124.168 250.752 116.388 245.96 111.596 C 243.61 109.246 240.541 108.049 237.458 108.004 Z " fill-rule="evenodd" id="el_GWbykkOcJz"/><path d=" M 270.24 16.875 C 271.984 14.811 274.59 13.5 277.5 13.5 C 282.743 13.5 287 17.757 287 23 C 287 28.243 282.743 32.5 277.5 32.5 C 276.563 32.5 275.658 32.364 274.803 32.111 L 268.043 38.871 L 258.143 28.972 L 270.24 16.875 Z " fill-rule="evenodd" id="el_ZoYI-AeIG4"/><path d=" M 165.504 104.47 C 163.656 106.204 162.5 108.668 162.5 111.4 C 162.5 116.643 166.757 120.9 172 120.9 C 174.732 120.9 177.196 119.744 178.93 117.896 L 178.934 117.9 L 188.3 108.534 L 174.866 95.1 L 165.5 104.466 L 165.504 104.47 Z " fill-rule="evenodd" id="el_UHthqJIOmP"/><path d=" M 240 32 L 249 32 L 249 41 L 240 32 Z " fill-rule="evenodd" id="el_HWZgdfmtLR"/><circle vector-effect="non-scaling-stroke" cx="239.50000000000003" cy="41.5" r="9.5" id="el_k5LsVURxW9"/><path d=" M 167.337 38.871 L 172.521 38.871 L 172.521 38.871 C 172.521 42.493 175.461 45.434 179.083 45.434 L 200.25 45.434 L 200.25 51.167 L 179.083 51.167 L 179.083 51.167 L 200.25 51.167 L 200.25 56.948 L 154.63 56.948 L 154.63 56.948 L 148.849 56.948 L 148.849 56.948 L 143.067 56.948 C 143.067 53.757 145.658 51.167 148.849 51.167 L 178.378 51.167 C 173.968 50.917 170.176 48.343 168.209 44.653 L 161.556 44.653 C 158.365 44.653 155.775 42.062 155.775 38.871 L 161.556 38.871 L 161.556 38.871 L 167.337 38.871 L 167.337 38.871 Z " fill-rule="evenodd" id="el_Im1ExAi8bb"/><path d=" M 207.865 65.319 L 207.792 65.391 L 200.451 58.049 L 200.433 58.067 C 191.189 48.822 191.189 33.811 200.433 24.567 C 209.678 15.322 224.689 15.322 233.933 24.567 L 217.25 41.25 L 223.818 47.818 C 226.376 49.993 228 53.233 228 56.85 C 228 63.39 222.69 68.7 216.15 68.7 C 212.927 68.7 210.002 67.41 207.865 65.319 Z " fill-rule="evenodd" id="el_Xp5rl5Uk3y"/><clipPath id="_clipPath_N9pOvVxmH784KiDrRlnP7jxCjB26YMgK"><path d=" M 207.865 65.319 L 207.792 65.391 L 200.451 58.049 L 200.433 58.067 C 191.189 48.822 191.189 33.811 200.433 24.567 C 209.678 15.322 224.689 15.322 233.933 24.567 L 217.25 41.25 L 223.818 47.818 C 226.376 49.993 228 53.233 228 56.85 C 228 63.39 222.69 68.7 216.15 68.7 C 212.927 68.7 210.002 67.41 207.865 65.319 Z " fill="rgb(255,255,255)"/></clipPath><g clip-path="url(#_clipPath_N9pOvVxmH784KiDrRlnP7jxCjB26YMgK)" id="el_eUP0kROe0w"><rect x="186.551" y="31.09" width="47.171" height="6.302" id="el_c351Aj2bQW"/></g><path d=" M 127.389 140.122 C 125.25 143.229 124.08 146.93 124.08 150.75 C 124.08 152.34 123.45 153.87 122.33 154.99 C 121.2 156.12 119.67 156.75 118.08 156.75 C 116.49 156.75 114.97 156.12 113.84 154.99 C 112.72 153.87 112.08 152.34 112.08 150.75 C 112.08 144.17 114.199 137.798 118.046 132.556 C 127.375 140.167 118 132.542 127.389 140.122 Z " id="el_soteceF3zF"/><path d=" M 148.377 175.623 C 148.403 175.94 148.417 176.26 148.417 176.583 C 148.417 182.885 143.301 188.001 137 188 L 137 178.083 L 137 176.583 L 137 170 L 152.224 154.776 L 161.047 162.953 L 148.377 175.623 Z " fill-rule="evenodd" id="el_GIdgR8zQxY"/><path d=" M 223.97 158.833 C 223.53 165.07 218.325 170.001 211.977 170 L 211.977 158.833 L 211.977 157.977 L 211.977 144.027 L 224 132.003 L 243 131.871 L 224 150.833 L 224 158.833 L 223.97 158.833 Z " fill-rule="evenodd" id="el_bvk-hCWxqFr"/><path d=" M 224 150.833 L 223.97 158.833 C 223.53 165.07 218.325 170.001 211.977 170 L 211.977 144.027 L 224 132.003 L 192 132 L 160.217 163.783 L 148.377 175.623 C 148.403 175.94 148.417 176.26 148.417 176.583 C 148.417 182.885 143.301 188.001 137 188 L 137 170 L 149.88 157.12 L 149.88 157.12 L 149.88 157.12 L 162 145 L 162 133.849 L 153.333 142.515 C 150.483 145.366 145.854 145.366 143.003 142.515 L 134.462 133.974 C 132.672 134.868 131.02 136.05 129.58 137.49 C 126.06 141.01 124.08 145.78 124.08 150.75 C 124.08 152.34 123.45 153.87 122.33 154.99 L 122.33 154.99 L 122.33 154.99 L 122.33 154.99 C 121.2 156.12 119.67 156.75 118.08 156.75 C 116.49 156.75 114.97 156.12 113.84 154.99 C 112.72 153.87 112.08 152.34 112.08 150.75 C 112.08 142.6 115.33 134.77 121.09 129.01 C 122.51 127.587 124.056 126.318 125.702 125.214 L 115.451 114.963 L 115.451 114.963 L 115.451 114.963 C 110.956 110.468 110.956 103.17 115.451 98.676 C 116.728 97.399 118.232 96.484 119.833 95.933 L 119.833 95.933 L 188.442 66.846 C 193.968 64.666 199.895 63.805 205.738 64.262 L 205.738 64.262 L 206 63.598 Q 199.719 57.329 199.384 56.948 L 143.067 56.948 C 143.067 53.757 145.658 51.167 148.849 51.167 L 178.378 51.167 C 173.968 50.917 170.176 48.343 168.209 44.653 L 161.556 44.653 C 158.365 44.653 155.775 42.062 155.775 38.871 L 172.521 38.871 L 172.521 38.871 C 172.521 42.493 175.461 45.434 179.083 45.434 L 193.858 45.434 C 192.569 38.083 194.761 30.239 200.433 24.567 C 209.678 15.322 224.689 15.322 233.933 24.567 L 226.5 32 L 226.5 32 L 249 32 L 249 38 L 271.525 15.616 C 273.157 14.293 275.237 13.5 277.5 13.5 C 282.743 13.5 287 17.757 287 23 C 287 28.243 282.743 32.5 277.5 32.5 C 276.588 32.5 275.705 32.371 274.87 32.13 L 274.87 32.13 L 243 64 L 243 78 C 243 86.463 241.147 91.853 234 99 L 225 108 L 237.458 108.004 C 240.541 108.049 243.61 109.246 245.96 111.596 C 250.752 116.388 250.752 124.168 245.96 128.96 L 237.278 137.642 L 237.248 137.612 L 224 150.833 Z  M 124 168.8 C 122.09 169.43 120.09 169.75 118.07 169.75 C 113.04 169.75 108.21 167.74 104.65 164.18 C 101.09 160.62 99.08 155.79 99.08 150.76 C 99.08 150.76 99.08 150.75 99.08 150.75 L 99.08 150.75 L 99.08 150.75 L 99.08 150.75 C 99.08 141.58 101.96 132.65 107.31 125.21 L 106.26 124.16 C 106.26 124.15 106.26 124.15 106.26 124.15 C 101.66 119.56 99.08 113.32 99.08 106.82 C 99.08 100.32 101.66 94.08 106.25 89.49 C 108.76 86.98 111.77 85.05 115.09 83.82 L 147.82 69.95 L 130.07 69.95 L 130.07 56.95 C 130.07 53.03 131.29 49.21 133.57 46.02 C 135.85 42.84 139.07 40.44 142.78 39.18 C 142.78 39.07 142.77 38.97 142.77 38.87 L 142.77 25.87 L 183.91 25.87 C 185.72 21.97 188.2 18.42 191.24 15.37 C 198.12 8.5 207.46 4.63 217.18 4.63 C 226.91 4.63 236.25 8.5 243.12 15.37 C 244.18 16.43 245.04 17.65 245.68 19 L 249.68 19 L 262.36 6.4 C 262.67 6.09 263 5.79 263.34 5.52 C 267.35 2.27 272.35 0.5 277.5 0.5 C 283.47 0.5 289.19 2.87 293.41 7.09 C 297.63 11.31 300 17.04 300 23 C 300 28.53 297.96 33.87 294.28 37.99 C 290.6 42.11 285.52 44.74 280.03 45.36 L 256 69.38 L 256 77.94 C 256.02 80.56 255.84 83.19 255.45 85.78 C 255.03 88.58 254.27 91.33 253.2 93.95 C 252.49 95.65 251.66 97.29 250.71 98.86 C 252.32 99.87 253.81 101.06 255.15 102.4 C 259.89 107.14 262.55 113.58 262.55 120.28 C 262.55 126.98 259.89 133.41 255.15 138.15 C 255.15 138.15 255.15 138.15 255.15 138.15 L 237.28 156.03 L 237.24 155.99 L 236.98 156.25 L 236.97 158.88 C 236.97 159.17 236.96 159.46 236.94 159.75 C 236.49 166.06 233.66 171.98 229.03 176.29 C 224.4 180.6 218.3 183 211.98 183 L 198.98 183 L 198.98 145 L 197.38 145 L 169.41 172.98 L 160.92 181.46 C 159.8 186.97 156.81 191.93 152.45 195.49 C 148.09 199.05 142.63 201 137 201 C 137 201 137 201 137 201 L 124 201 L 124 168.8 Z " fill-rule="evenodd" id="el_rf7Yo9D0cH5"/></g></g><g id="el_QUksWRm8RPv_an_O94lIc13K" data-animator-group="true" data-animator-type="0"><g id="el_QUksWRm8RPv"><g id="el_aJFFlW3eh3_"><path d="M 19.259 174.608 L 62.57 131.297 C 67.297 126.569 74.974 126.569 79.702 131.297 L 87.554 139.149 C 92.282 143.877 92.282 151.553 87.554 156.281 L 44.243 199.592 C 39.515 204.32 31.839 204.32 27.111 199.592 L 19.259 191.74 C 14.531 187.012 14.531 179.335 19.259 174.608 Z" id="el_AJM3zKceqEX"/><rect x="23.255" y="160.543" width="60" height="9.5" id="el_wsJBmiaTVzV"/></g><g id="el_sqH-uXqlsnA"><path d="M 99.582 254.717 L 142.893 211.406 C 147.621 206.678 155.297 206.678 160.025 211.406 L 167.877 219.258 C 172.605 223.986 172.605 231.663 167.877 236.39 L 124.567 279.701 C 119.839 284.429 112.162 284.429 107.434 279.701 L 99.582 271.849 C 94.854 267.121 94.854 259.444 99.582 254.717 Z" id="el_wqHGPwplsIy"/><rect x="103.578" y="240.652" width="60" height="9.5" id="el_5UQqqMCgqsM"/></g><g id="el_WcAZlaFALV_"><path d="M 19.259 254.608 L 62.57 211.297 C 67.297 206.569 74.974 206.569 79.702 211.297 L 87.554 219.149 C 92.282 223.877 92.282 231.553 87.554 236.281 L 44.243 279.592 C 39.515 284.32 31.839 284.32 27.111 279.592 L 19.259 271.74 C 14.531 267.012 14.531 259.335 19.259 254.608 Z" id="el_3n345NszLOJ"/><rect x="23.255" y="240.543" width="60" height="9.5" id="el_Q0EQvPUHK_t"/></g></g></g></g></svg>