<?xml version="1.0" encoding="UTF-8" standalone="no"?><!-- Generator: Gravit.io --><svg xmlns="http://www.w3.org/2000/svg" xmlns:xlink="http://www.w3.org/1999/xlink" style="isolation:isolate" viewBox="0 0 472.5 100" width="472.5pt" height="100pt"><path d=" M 252.26 58.721 L 252.26 64.915 L 252.26 64.915 Q 248.964 66.511 243.652 66.511 L 243.652 66.511 L 243.652 66.511 Q 236.723 66.511 232.755 62.437 L 232.755 62.437 L 232.755 62.437 Q 228.786 58.364 228.786 51.582 L 228.786 51.582 L 228.786 51.582 Q 228.786 44.36 233.248 39.866 L 233.248 39.866 L 233.248 39.866 Q 237.71 35.373 244.827 35.373 L 244.827 35.373 L 244.827 35.373 Q 249.237 35.373 252.26 36.486 L 252.26 36.486 L 252.26 43.016 L 252.26 43.016 Q 249.237 41.21 245.373 41.21 L 245.373 41.21 L 245.373 41.21 Q 241.132 41.21 238.529 43.877 L 238.529 43.877 L 238.529 43.877 Q 235.925 46.543 235.925 51.099 L 235.925 51.099 L 235.925 51.099 Q 235.925 55.467 238.382 58.06 L 238.382 58.06 L 238.382 58.06 Q 240.838 60.653 244.995 60.653 L 244.995 60.653 L 244.995 60.653 Q 248.964 60.653 252.26 58.721 L 252.26 58.721 L 252.26 58.721 Z  M 267.104 66.511 L 267.104 66.511 L 267.104 66.511 Q 261.729 66.511 258.653 63.498 L 258.653 63.498 L 258.653 63.498 Q 255.577 60.485 255.577 55.32 L 255.577 55.32 L 255.577 55.32 Q 255.577 49.987 258.769 46.974 L 258.769 46.974 L 258.769 46.974 Q 261.96 43.961 267.398 43.961 L 267.398 43.961 L 267.398 43.961 Q 272.752 43.961 275.797 46.974 L 275.797 46.974 L 275.797 46.974 Q 278.841 49.987 278.841 54.942 L 278.841 54.942 L 278.841 54.942 Q 278.841 60.296 275.702 63.403 L 275.702 63.403 L 275.702 63.403 Q 272.563 66.511 267.104 66.511 Z  M 267.272 49.042 L 267.272 49.042 L 267.272 49.042 Q 264.921 49.042 263.619 50.658 L 263.619 50.658 L 263.619 50.658 Q 262.317 52.275 262.317 55.236 L 262.317 55.236 L 262.317 55.236 Q 262.317 61.429 267.314 61.429 L 267.314 61.429 L 267.314 61.429 Q 272.08 61.429 272.08 55.068 L 272.08 55.068 L 272.08 55.068 Q 272.08 49.042 267.272 49.042 Z  M 317.285 52.611 L 317.285 65.986 L 310.671 65.986 L 310.671 53.724 L 310.671 53.724 Q 310.671 49.042 307.228 49.042 L 307.228 49.042 L 307.228 49.042 Q 305.59 49.042 304.561 50.449 L 304.561 50.449 L 304.561 50.449 Q 303.533 51.855 303.533 53.955 L 303.533 53.955 L 303.533 65.986 L 296.898 65.986 L 296.898 53.598 L 296.898 53.598 Q 296.898 49.042 293.517 49.042 L 293.517 49.042 L 293.517 49.042 Q 291.817 49.042 290.798 50.386 L 290.798 50.386 L 290.798 50.386 Q 289.78 51.729 289.78 54.039 L 289.78 54.039 L 289.78 65.986 L 283.145 65.986 L 283.145 44.486 L 289.78 44.486 L 289.78 47.845 L 289.864 47.845 L 289.864 47.845 Q 290.893 46.123 292.751 45.042 L 292.751 45.042 L 292.751 45.042 Q 294.609 43.961 296.814 43.961 L 296.814 43.961 L 296.814 43.961 Q 301.37 43.961 303.05 47.971 L 303.05 47.971 L 303.05 47.971 Q 305.506 43.961 310.272 43.961 L 310.272 43.961 L 310.272 43.961 Q 317.285 43.961 317.285 52.611 L 317.285 52.611 L 317.285 52.611 Z  M 356.674 52.611 L 356.674 65.986 L 350.06 65.986 L 350.06 53.724 L 350.06 53.724 Q 350.06 49.042 346.617 49.042 L 346.617 49.042 L 346.617 49.042 Q 344.979 49.042 343.95 50.449 L 343.95 50.449 L 343.95 50.449 Q 342.921 51.855 342.921 53.955 L 342.921 53.955 L 342.921 65.986 L 336.286 65.986 L 336.286 53.598 L 336.286 53.598 Q 336.286 49.042 332.906 49.042 L 332.906 49.042 L 332.906 49.042 Q 331.205 49.042 330.187 50.386 L 330.187 50.386 L 330.187 50.386 Q 329.169 51.729 329.169 54.039 L 329.169 54.039 L 329.169 65.986 L 322.534 65.986 L 322.534 44.486 L 329.169 44.486 L 329.169 47.845 L 329.253 47.845 L 329.253 47.845 Q 330.282 46.123 332.14 45.042 L 332.14 45.042 L 332.14 45.042 Q 333.998 43.961 336.202 43.961 L 336.202 43.961 L 336.202 43.961 Q 340.759 43.961 342.438 47.971 L 342.438 47.971 L 342.438 47.971 Q 344.895 43.961 349.661 43.961 L 349.661 43.961 L 349.661 43.961 Q 356.674 43.961 356.674 52.611 L 356.674 52.611 L 356.674 52.611 Z  M 382.352 44.486 L 382.352 65.986 L 375.738 65.986 L 375.738 62.71 L 375.633 62.71 L 375.633 62.71 Q 373.177 66.511 369.061 66.511 L 369.061 66.511 L 369.061 66.511 Q 361.587 66.511 361.587 57.461 L 361.587 57.461 L 361.587 44.486 L 368.201 44.486 L 368.201 56.873 L 368.201 56.873 Q 368.201 61.429 371.812 61.429 L 371.812 61.429 L 371.812 61.429 Q 373.597 61.429 374.667 60.18 L 374.667 60.18 L 374.667 60.18 Q 375.738 58.931 375.738 56.789 L 375.738 56.789 L 375.738 44.486 L 382.352 44.486 L 382.352 44.486 Z  M 408.702 52.821 L 408.702 65.986 L 402.088 65.986 L 402.088 54.039 L 402.088 54.039 Q 402.088 49.042 398.519 49.042 L 398.519 49.042 L 398.519 49.042 Q 396.797 49.042 395.684 50.365 L 395.684 50.365 L 395.684 50.365 Q 394.572 51.687 394.572 53.724 L 394.572 53.724 L 394.572 65.986 L 387.937 65.986 L 387.937 44.486 L 394.572 44.486 L 394.572 47.887 L 394.656 47.887 L 394.656 47.887 Q 397.028 43.961 401.563 43.961 L 401.563 43.961 L 401.563 43.961 Q 408.702 43.961 408.702 52.821 L 408.702 52.821 L 408.702 52.821 Z  M 417.31 41.084 L 417.31 41.084 L 417.31 41.084 Q 415.631 41.084 414.56 40.087 L 414.56 40.087 L 414.56 40.087 Q 413.489 39.09 413.489 37.641 L 413.489 37.641 L 413.489 37.641 Q 413.489 36.15 414.56 35.205 L 414.56 35.205 L 414.56 35.205 Q 415.631 34.261 417.31 34.261 L 417.31 34.261 L 417.31 34.261 Q 419.011 34.261 420.071 35.205 L 420.071 35.205 L 420.071 35.205 Q 421.132 36.15 421.132 37.641 L 421.132 37.641 L 421.132 37.641 Q 421.132 39.153 420.071 40.118 L 420.071 40.118 L 420.071 40.118 Q 419.011 41.084 417.31 41.084 Z  M 420.586 44.486 L 420.586 65.986 L 413.951 65.986 L 413.951 44.486 L 420.586 44.486 L 420.586 44.486 Z  M 439.167 60.821 L 439.167 65.734 L 439.167 65.734 Q 437.698 66.511 434.737 66.511 L 434.737 66.511 L 434.737 66.511 Q 427.724 66.511 427.724 59.225 L 427.724 59.225 L 427.724 49.378 L 424.239 49.378 L 424.239 44.486 L 427.724 44.486 L 427.724 39.846 L 434.338 37.956 L 434.338 44.486 L 439.167 44.486 L 439.167 49.378 L 434.338 49.378 L 434.338 58.07 L 434.338 58.07 Q 434.338 61.429 437.005 61.429 L 437.005 61.429 L 437.005 61.429 Q 438.055 61.429 439.167 60.821 L 439.167 60.821 L 439.167 60.821 Z  M 456.804 44.486 L 463.376 44.486 L 454.641 67.707 L 454.641 67.707 Q 451.492 76.085 445.151 76.085 L 445.151 76.085 L 445.151 76.085 Q 442.737 76.085 441.183 75.539 L 441.183 75.539 L 441.183 70.248 L 441.183 70.248 Q 442.506 71.025 444.059 71.025 L 444.059 71.025 L 444.059 71.025 Q 446.621 71.025 447.629 68.61 L 447.629 68.61 L 448.763 65.944 L 440.028 44.486 L 447.377 44.486 L 451.387 57.566 L 451.387 57.566 Q 451.765 58.784 451.975 60.443 L 451.975 60.443 L 452.059 60.443 L 452.059 60.443 Q 452.248 59.225 452.752 57.608 L 452.752 57.608 L 456.804 44.486 L 456.804 44.486 Z  M 142.639 35.877 L 142.639 52.947 L 142.639 52.947 Q 142.639 66.511 130 66.511 L 130 66.511 L 130 66.511 Q 117.738 66.511 117.738 53.262 L 117.738 53.262 L 117.738 35.877 L 124.541 35.877 L 124.541 53.346 L 124.541 53.346 Q 124.541 60.653 130.252 60.653 L 130.252 60.653 L 130.252 60.653 Q 135.858 60.653 135.858 53.598 L 135.858 53.598 L 135.858 35.877 L 142.639 35.877 L 142.639 35.877 Z  M 181.734 35.877 L 188.579 35.877 L 180.621 65.986 L 173.105 65.986 L 168.108 46.669 L 168.108 46.669 Q 167.709 45.158 167.625 43.289 L 167.625 43.289 L 167.541 43.289 L 167.541 43.289 Q 167.352 45.346 166.995 46.669 L 166.995 46.669 L 161.872 65.986 L 154.04 65.986 L 146.125 35.877 L 153.536 35.877 L 157.778 55.929 L 157.778 55.929 Q 158.051 57.209 158.177 59.372 L 158.177 59.372 L 158.303 59.372 L 158.303 59.372 Q 158.387 57.755 158.911 55.845 L 158.911 55.845 L 164.37 35.877 L 171.635 35.877 L 176.569 56.096 L 176.569 56.096 Q 176.842 57.209 177.052 59.33 L 177.052 59.33 L 177.136 59.33 L 177.136 59.33 Q 177.22 57.671 177.577 55.971 L 177.577 55.971 L 181.734 35.877 L 181.734 35.877 Z  M 202.415 55.614 L 199.182 55.614 L 199.182 65.986 L 192.4 65.986 L 192.4 35.877 L 203.024 35.877 L 203.024 35.877 Q 214.404 35.877 214.404 45.472 L 214.404 45.472 L 214.404 45.472 Q 214.404 50.008 211.139 52.811 L 211.139 52.811 L 211.139 52.811 Q 207.874 55.614 202.415 55.614 L 202.415 55.614 L 202.415 55.614 Z  M 201.848 41.084 L 199.182 41.084 L 199.182 50.47 L 201.848 50.47 L 201.848 50.47 Q 207.265 50.47 207.265 45.724 L 207.265 45.724 L 207.265 45.724 Q 207.265 41.084 201.848 41.084 L 201.848 41.084 L 201.848 41.084 Z " fill="rgb(0,0,0)"/><g><path d=" M 11.333 56.366 C 9.32 54.353 9.32 51.084 11.333 49.071 C 11.905 48.499 12.579 48.089 13.296 47.842 L 44.023 34.8 L 44.029 34.813 C 50.266 32.353 57.646 33.643 62.686 38.683 L 50.413 50.957 L 38.139 63.23 C 37.395 62.487 36.733 61.692 36.153 60.858 L 36.153 60.858 L 28.302 68.708 C 27.025 69.985 24.952 69.985 23.675 68.708 L 22.584 67.617 L 19.021 64.055 C 17.744 62.778 17.744 60.704 19.021 59.427 L 19.504 58.944 L 18.043 59.564 L 18.043 59.564 L 17.129 57.41 L 17.129 57.41 C 15.225 58.28 12.899 57.932 11.333 56.366 L 11.333 56.366 Z  M 33.318 53.957 L 32.523 54.751 L 32.523 54.751 L 33.816 56.044 C 33.606 55.357 33.44 54.66 33.318 53.957 L 33.318 53.957 L 33.318 53.957 Z  M 11.333 56.366 L 11.333 56.366 L 20.275 47.425 Q 20.275 47.425 20.275 47.425 L 31.525 58.675 L 31.525 58.675 L 31.525 58.675 L 22.584 67.617 L 22.584 67.617 Q 22.584 67.617 22.584 67.617 L 11.333 56.366 L 11.333 56.366 L 11.333 56.366 Z " fill="rgb(0,188,242)"/><path d=" M 65.985 53.249 L 65.985 53.248 L 60.405 53.248 L 64.436 49.216 C 67.637 46.015 68.467 43.6 68.467 39.809 L 68.467 33.538 L 82.802 19.204 L 81.234 11.813 L 71.155 21.892 L 71.155 19.204 L 51.894 19.204 L 51.894 33.538 L 37.784 47.648 L 35.656 58.623 L 23.597 58.623 L 23.597 58.623 L 23.226 58.623 L 23.226 58.628 C 19.709 58.723 16.352 60.162 13.859 62.659 C 11.279 65.239 9.823 68.746 9.823 72.397 C 9.823 73.109 10.11 73.795 10.612 74.296 C 11.118 74.802 11.799 75.085 12.511 75.085 C 13.223 75.085 13.908 74.802 14.415 74.296 C 14.916 73.795 15.198 73.109 15.198 72.397 C 15.198 70.171 16.085 68.034 17.662 66.457 C 19.234 64.885 21.371 63.998 23.597 63.998 L 23.597 63.998 L 32.184 63.998 L 32.184 69.821 L 26.755 75.25 L 30.418 79.202 L 45.623 63.998 L 63.337 63.958 L 65.904 66.525 L 69.793 62.636 C 71.94 60.49 71.94 57.005 69.793 54.858 C 68.741 53.806 67.366 53.269 65.985 53.249 Z " fill-rule="evenodd" fill="rgb(117,117,117)"/><path d=" M 80.67 12.429 C 81.45 11.505 82.618 10.917 83.921 10.917 C 86.27 10.917 88.177 12.824 88.177 15.173 C 88.177 17.521 86.27 19.428 83.921 19.428 C 83.502 19.428 83.096 19.367 82.713 19.254 L 79.685 22.282 L 75.251 17.848 L 80.67 12.429 Z " fill-rule="evenodd" fill="rgb(204,204,204)"/><path d=" M 33.754 51.666 C 32.926 52.443 32.408 53.547 32.408 54.771 C 32.408 57.119 34.315 59.026 36.664 59.026 C 37.888 59.026 38.991 58.508 39.768 57.68 L 39.77 57.682 L 43.965 53.487 L 37.947 47.469 L 33.752 51.664 L 33.754 51.666 Z " fill-rule="evenodd" fill="rgb(204,204,204)"/><path d=" M 67.124 19.204 L 71.155 19.204 L 71.155 23.236 L 67.124 19.204 Z " fill-rule="evenodd" fill="rgb(245,141,81)"/><circle vector-effect="non-scaling-stroke" cx="66.8996615570797" cy="23.459585905073943" r="4.255425044756077" fill="rgb(255,255,255)"/><path d=" M 34.575 22.282 L 36.897 22.282 L 36.897 22.282 C 36.897 23.904 38.214 25.222 39.837 25.222 L 49.318 25.222 L 49.318 27.79 L 39.837 27.79 L 39.837 27.79 L 49.318 27.79 L 49.318 30.379 L 28.883 30.379 L 28.883 30.379 L 26.293 30.379 L 26.293 30.379 L 23.704 30.379 C 23.704 28.95 24.864 27.79 26.293 27.79 L 39.521 27.79 C 37.545 27.678 35.847 26.525 34.965 24.872 L 31.986 24.872 C 30.556 24.872 29.396 23.711 29.396 22.282 L 31.986 22.282 L 31.986 22.282 L 34.575 22.282 L 34.575 22.282 Z " fill-rule="evenodd" fill="rgb(232,18,36)"/><path d=" M 52.729 34.129 L 52.697 34.161 L 49.408 30.873 L 49.4 30.88 C 45.259 26.739 45.259 20.015 49.4 15.874 C 53.541 11.733 60.265 11.733 64.406 15.874 L 56.933 23.348 L 59.875 26.29 C 61.021 27.264 61.748 28.715 61.748 30.335 C 61.748 33.265 59.37 35.644 56.44 35.644 C 54.996 35.644 53.686 35.066 52.729 34.129 Z " fill-rule="evenodd" fill="rgb(255,255,255)"/><clipPath id="_clipPath_pc0NA9YMepCaVXgo1JJ65YX9L7v1zC8f"><path d=" M 52.729 34.129 L 52.697 34.161 L 49.408 30.873 L 49.4 30.88 C 45.259 26.739 45.259 20.015 49.4 15.874 C 53.541 11.733 60.265 11.733 64.406 15.874 L 56.933 23.348 L 59.875 26.29 C 61.021 27.264 61.748 28.715 61.748 30.335 C 61.748 33.265 59.37 35.644 56.44 35.644 C 54.996 35.644 53.686 35.066 52.729 34.129 Z " fill="rgb(255,255,255)"/></clipPath><g clip-path="url(#_clipPath_pc0NA9YMepCaVXgo1JJ65YX9L7v1zC8f)"><rect x="43.182" y="18.797" width="21.13" height="2.823" transform="matrix(0.707,-0.707,0.707,0.707,1.453,43.923)" fill="rgb(232,18,36)"/></g><path d=" M 16.681 67.636 C 15.722 69.028 15.198 70.686 15.198 72.397 C 15.198 73.109 14.916 73.795 14.415 74.296 C 13.908 74.802 13.223 75.085 12.511 75.085 C 11.799 75.085 11.118 74.802 10.612 74.296 C 10.11 73.795 9.823 73.109 9.823 72.397 C 9.823 69.449 10.772 66.595 12.496 64.247 C 16.674 67.656 12.475 64.241 16.681 67.636 Z " fill="rgb(204,204,204)"/><path d=" M 26.082 83.539 C 26.094 83.68 26.1 83.824 26.1 83.969 C 26.1 86.791 23.808 89.083 20.986 89.083 L 20.986 83.969 L 20.986 83.969 L 20.986 81.02 L 27.805 74.2 L 31.757 77.863 L 26.082 83.539 Z " fill-rule="evenodd" fill="rgb(204,204,204)"/><path d=" M 59.943 76.018 C 59.746 78.812 57.414 81.02 54.571 81.02 L 54.571 76.018 L 54.571 76.018 L 54.571 69.385 L 59.957 64 L 68.467 63.94 L 59.957 72.434 L 59.957 76.018 L 59.943 76.018 Z " fill-rule="evenodd" fill="rgb(204,204,204)"/><path d=" M 59.957 72.434 L 59.943 76.018 C 59.746 78.812 57.415 81.02 54.571 81.02 L 54.571 69.385 L 59.957 64 L 45.623 63.998 L 31.386 78.235 L 26.082 83.539 C 26.094 83.68 26.1 83.824 26.1 83.969 C 26.1 86.791 23.808 89.083 20.986 89.083 L 20.986 81.02 L 26.755 75.25 L 26.755 75.25 L 26.755 75.25 L 32.184 69.821 L 32.184 64.826 L 28.302 68.708 C 27.025 69.985 24.952 69.985 23.675 68.708 L 19.849 64.882 C 19.047 65.283 18.307 65.812 17.662 66.457 C 16.085 68.034 15.198 70.171 15.198 72.397 C 15.198 73.109 14.916 73.795 14.415 74.296 L 14.415 74.296 L 14.415 74.296 L 14.415 74.296 C 13.908 74.802 13.223 75.085 12.511 75.085 C 11.799 75.085 11.118 74.802 10.612 74.296 C 10.11 73.795 9.823 73.109 9.823 72.397 C 9.823 68.746 11.279 65.239 13.859 62.659 C 14.495 62.021 15.188 61.453 15.925 60.958 L 11.333 56.366 L 11.333 56.366 L 11.333 56.366 C 9.32 54.353 9.32 51.084 11.333 49.071 C 11.905 48.499 12.579 48.089 13.296 47.842 L 13.296 47.842 L 44.029 34.813 C 46.504 33.837 49.159 33.451 51.776 33.656 L 51.776 33.656 L 51.894 33.358 Q 49.08 30.55 48.93 30.379 L 23.704 30.379 C 23.704 28.95 24.864 27.79 26.293 27.79 L 39.521 27.79 C 37.545 27.678 35.847 26.525 34.965 24.872 L 31.986 24.872 C 30.556 24.872 29.396 23.711 29.396 22.282 L 36.897 22.282 L 36.897 22.282 C 36.897 23.904 38.214 25.222 39.837 25.222 L 46.455 25.222 C 45.877 21.929 46.859 18.415 49.4 15.874 C 53.541 11.733 60.265 11.733 64.406 15.874 L 61.076 19.204 L 61.076 19.204 L 71.155 19.204 L 71.155 21.892 L 81.245 11.865 C 81.976 11.273 82.908 10.917 83.921 10.917 C 86.27 10.917 88.177 12.824 88.177 15.173 C 88.177 17.521 86.27 19.428 83.921 19.428 C 83.513 19.428 83.117 19.37 82.743 19.263 L 82.743 19.263 L 68.467 33.538 L 68.467 39.809 C 68.467 43.6 67.637 46.015 64.436 49.216 L 60.405 53.248 L 65.985 53.249 C 67.366 53.269 68.741 53.806 69.793 54.858 C 71.94 57.005 71.94 60.49 69.793 62.636 L 65.904 66.525 L 65.891 66.512 L 59.957 72.434 Z  M 15.163 80.482 C 14.307 80.764 13.411 80.908 12.506 80.908 C 10.253 80.908 8.09 80.007 6.495 78.413 C 4.9 76.818 4 74.655 4 72.401 C 4 72.401 4 72.397 4 72.397 L 4 72.397 L 4 72.397 L 4 72.397 C 4 68.289 5.29 64.289 7.687 60.957 L 7.216 60.486 C 7.216 60.482 7.216 60.482 7.216 60.482 C 5.156 58.426 4 55.631 4 52.719 C 4 49.807 5.156 47.012 7.212 44.956 C 8.336 43.832 9.684 42.967 11.172 42.416 L 25.833 36.203 L 17.882 36.203 L 17.882 30.38 C 17.882 28.624 18.428 26.913 19.449 25.484 C 20.471 24.06 21.913 22.985 23.575 22.42 C 23.575 22.371 23.57 22.326 23.57 22.282 L 23.57 16.458 L 41.999 16.458 C 42.809 14.711 43.92 13.121 45.282 11.755 C 48.364 8.678 52.548 6.944 56.902 6.944 C 61.26 6.944 65.444 8.678 68.521 11.755 C 68.996 12.23 69.381 12.776 69.668 13.381 L 71.46 13.381 L 77.14 7.737 C 77.278 7.598 77.426 7.464 77.579 7.343 C 79.375 5.887 81.614 5.094 83.921 5.094 C 86.596 5.094 89.158 6.156 91.048 8.046 C 92.938 9.936 94 12.503 94 15.173 C 94 17.65 93.086 20.042 91.438 21.887 C 89.789 23.733 87.514 24.911 85.055 25.189 L 74.291 35.948 L 74.291 39.783 C 74.3 40.956 74.219 42.134 74.044 43.294 C 73.856 44.549 73.516 45.78 73.036 46.954 C 72.718 47.716 72.347 48.45 71.921 49.153 C 72.642 49.606 73.31 50.139 73.91 50.739 C 76.033 52.862 77.225 55.747 77.225 58.748 C 77.225 61.749 76.033 64.63 73.91 66.753 C 73.91 66.753 73.91 66.753 73.91 66.753 L 65.905 74.762 L 65.887 74.744 L 65.771 74.861 L 65.766 76.039 C 65.766 76.169 65.762 76.299 65.753 76.428 C 65.551 79.255 64.284 81.907 62.21 83.837 C 60.136 85.768 57.403 86.843 54.572 86.843 L 48.749 86.843 L 48.749 69.821 L 48.032 69.821 L 35.504 82.355 L 31.701 86.153 C 31.199 88.621 29.86 90.843 27.907 92.438 C 25.954 94.032 23.508 94.906 20.986 94.906 C 20.986 94.906 20.986 94.906 20.986 94.906 L 15.163 94.906 L 15.163 80.482 Z " fill-rule="evenodd" fill="rgb(0,0,0)"/></g></svg>